<svg xmlns="http://www.w3.org/2000/svg" xmlns:xlink="http://www.w3.org/1999/xlink" width="500" zoomAndPan="magnify" viewBox="0 0 375 374.999991" height="500" preserveAspectRatio="xMidYMid meet" version="1.0"><defs><g/><clipPath id="ee0eecd7f7"><rect x="0" width="177" y="0" height="32"/></clipPath><clipPath id="09f0cf1c40"><rect x="0" width="187" y="0" height="20"/></clipPath><clipPath id="81a493c156"><path d="M 88 87 L 264 87 L 264 263 L 88 263 Z M 88 87 " clip-rule="nonzero"/></clipPath><clipPath id="a560a67ae6"><path d="M 0.480469 175.492188 L 175.117188 0.855469 L 349.753906 175.492188 L 175.117188 350.128906 Z M 0.480469 175.492188 " clip-rule="nonzero"/></clipPath><clipPath id="722a3745ee"><path d="M 0.480469 175.492188 L 175.117188 0.855469 L 349.753906 175.492188 L 175.117188 350.128906 Z M 0.480469 175.492188 " clip-rule="nonzero"/></clipPath><clipPath id="bb564f4830"><path d="M 105.605469 108.722656 L 149.871094 108.722656 L 149.871094 147.574219 L 105.605469 147.574219 Z M 105.605469 108.722656 " clip-rule="nonzero"/></clipPath><clipPath id="829b2cb056"><path d="M 0.605469 0.722656 L 44.871094 0.722656 L 44.871094 39.574219 L 0.605469 39.574219 Z M 0.605469 0.722656 " clip-rule="nonzero"/></clipPath><clipPath id="c6d7bc23be"><rect x="0" width="45" y="0" height="40"/></clipPath><clipPath id="a38f15bf72"><rect x="0" width="351" y="0" height="351"/></clipPath></defs><g transform="matrix(1, 0, 0, 1, 12, 12)"><g clip-path="url(#a38f15bf72)"><g transform="matrix(1, 0, 0, 1, 87, 256)"><g clip-path="url(#ee0eecd7f7)"><g fill="#2295a1" fill-opacity="1"><g transform="translate(0.665733, 23.800076)"><g><path d="M 10.453125 -8.046875 C 11.335938 -7.878906 12.0625 -7.4375 12.625 -6.71875 C 13.195312 -6 13.484375 -5.175781 13.484375 -4.25 C 13.484375 -3.40625 13.273438 -2.664062 12.859375 -2.03125 C 12.453125 -1.394531 11.859375 -0.894531 11.078125 -0.53125 C 10.296875 -0.175781 9.375 0 8.3125 0 L 1.546875 0 L 1.546875 -15.6875 L 8.015625 -15.6875 C 9.078125 -15.6875 9.992188 -15.515625 10.765625 -15.171875 C 11.546875 -14.828125 12.132812 -14.347656 12.53125 -13.734375 C 12.925781 -13.117188 13.125 -12.421875 13.125 -11.640625 C 13.125 -10.722656 12.878906 -9.957031 12.390625 -9.34375 C 11.898438 -8.726562 11.253906 -8.296875 10.453125 -8.046875 Z M 4.703125 -9.21875 L 7.578125 -9.21875 C 8.328125 -9.21875 8.898438 -9.382812 9.296875 -9.71875 C 9.703125 -10.050781 9.90625 -10.535156 9.90625 -11.171875 C 9.90625 -11.796875 9.703125 -12.28125 9.296875 -12.625 C 8.898438 -12.96875 8.328125 -13.140625 7.578125 -13.140625 L 4.703125 -13.140625 Z M 7.859375 -2.5625 C 8.628906 -2.5625 9.226562 -2.738281 9.65625 -3.09375 C 10.082031 -3.457031 10.296875 -3.96875 10.296875 -4.625 C 10.296875 -5.300781 10.066406 -5.828125 9.609375 -6.203125 C 9.160156 -6.585938 8.554688 -6.78125 7.796875 -6.78125 L 4.703125 -6.78125 L 4.703125 -2.5625 Z M 7.859375 -2.5625 "/></g></g></g><g fill="#2295a1" fill-opacity="1"><g transform="translate(15.108364, 23.800076)"><g><path d="M 0.734375 -6.265625 C 0.734375 -7.523438 0.984375 -8.640625 1.484375 -9.609375 C 1.992188 -10.585938 2.675781 -11.335938 3.53125 -11.859375 C 4.394531 -12.390625 5.359375 -12.65625 6.421875 -12.65625 C 7.347656 -12.65625 8.160156 -12.46875 8.859375 -12.09375 C 9.554688 -11.71875 10.113281 -11.242188 10.53125 -10.671875 L 10.53125 -12.453125 L 13.703125 -12.453125 L 13.703125 0 L 10.53125 0 L 10.53125 -1.8125 C 10.132812 -1.226562 9.578125 -0.742188 8.859375 -0.359375 C 8.148438 0.015625 7.332031 0.203125 6.40625 0.203125 C 5.351562 0.203125 4.394531 -0.0664062 3.53125 -0.609375 C 2.675781 -1.148438 1.992188 -1.910156 1.484375 -2.890625 C 0.984375 -3.867188 0.734375 -4.992188 0.734375 -6.265625 Z M 10.53125 -6.21875 C 10.53125 -6.988281 10.378906 -7.644531 10.078125 -8.1875 C 9.785156 -8.738281 9.382812 -9.160156 8.875 -9.453125 C 8.363281 -9.742188 7.816406 -9.890625 7.234375 -9.890625 C 6.648438 -9.890625 6.109375 -9.742188 5.609375 -9.453125 C 5.117188 -9.171875 4.71875 -8.753906 4.40625 -8.203125 C 4.101562 -7.660156 3.953125 -7.015625 3.953125 -6.265625 C 3.953125 -5.515625 4.101562 -4.859375 4.40625 -4.296875 C 4.71875 -3.734375 5.125 -3.300781 5.625 -3 C 6.125 -2.707031 6.660156 -2.5625 7.234375 -2.5625 C 7.816406 -2.5625 8.363281 -2.707031 8.875 -3 C 9.382812 -3.289062 9.785156 -3.707031 10.078125 -4.25 C 10.378906 -4.800781 10.53125 -5.457031 10.53125 -6.21875 Z M 10.53125 -6.21875 "/></g></g></g><g fill="#2295a1" fill-opacity="1"><g transform="translate(30.33714, 23.800076)"><g><path d="M 4.703125 -16.625 L 4.703125 0 L 1.546875 0 L 1.546875 -16.625 Z M 4.703125 -16.625 "/></g></g></g><g fill="#2295a1" fill-opacity="1"><g transform="translate(36.581384, 23.800076)"><g><path d="M 3.140625 -13.9375 C 2.585938 -13.9375 2.128906 -14.109375 1.765625 -14.453125 C 1.398438 -14.804688 1.21875 -15.242188 1.21875 -15.765625 C 1.21875 -16.296875 1.398438 -16.734375 1.765625 -17.078125 C 2.128906 -17.429688 2.585938 -17.609375 3.140625 -17.609375 C 3.703125 -17.609375 4.164062 -17.429688 4.53125 -17.078125 C 4.894531 -16.734375 5.078125 -16.296875 5.078125 -15.765625 C 5.078125 -15.242188 4.894531 -14.804688 4.53125 -14.453125 C 4.164062 -14.109375 3.703125 -13.9375 3.140625 -13.9375 Z M 4.703125 -12.453125 L 4.703125 0 L 1.546875 0 L 1.546875 -12.453125 Z M 4.703125 -12.453125 "/></g></g></g><g fill="#2295a1" fill-opacity="1"><g transform="translate(42.825627, 23.800076)"><g><path d="M 8.921875 0 L 4.703125 -5.296875 L 4.703125 0 L 1.546875 0 L 1.546875 -16.625 L 4.703125 -16.625 L 4.703125 -7.171875 L 8.875 -12.453125 L 12.96875 -12.453125 L 7.484375 -6.203125 L 13.015625 0 Z M 8.921875 0 "/></g></g></g><g fill="#2295a1" fill-opacity="1"><g transform="translate(55.943035, 23.800076)"><g><path d="M 4.703125 -10.625 C 5.097656 -11.226562 5.648438 -11.71875 6.359375 -12.09375 C 7.078125 -12.46875 7.894531 -12.65625 8.8125 -12.65625 C 9.875 -12.65625 10.832031 -12.390625 11.6875 -11.859375 C 12.550781 -11.335938 13.234375 -10.59375 13.734375 -9.625 C 14.242188 -8.65625 14.5 -7.535156 14.5 -6.265625 C 14.5 -4.992188 14.242188 -3.867188 13.734375 -2.890625 C 13.234375 -1.910156 12.550781 -1.148438 11.6875 -0.609375 C 10.832031 -0.0664062 9.875 0.203125 8.8125 0.203125 C 7.882812 0.203125 7.070312 0.0195312 6.375 -0.34375 C 5.675781 -0.71875 5.117188 -1.195312 4.703125 -1.78125 L 4.703125 0 L 1.546875 0 L 1.546875 -16.625 L 4.703125 -16.625 Z M 11.28125 -6.265625 C 11.28125 -7.015625 11.125 -7.660156 10.8125 -8.203125 C 10.507812 -8.753906 10.109375 -9.171875 9.609375 -9.453125 C 9.109375 -9.742188 8.5625 -9.890625 7.96875 -9.890625 C 7.40625 -9.890625 6.875 -9.742188 6.375 -9.453125 C 5.875 -9.160156 5.46875 -8.734375 5.15625 -8.171875 C 4.851562 -7.617188 4.703125 -6.96875 4.703125 -6.21875 C 4.703125 -5.46875 4.851562 -4.816406 5.15625 -4.265625 C 5.46875 -3.710938 5.875 -3.289062 6.375 -3 C 6.875 -2.707031 7.40625 -2.5625 7.96875 -2.5625 C 8.5625 -2.5625 9.109375 -2.707031 9.609375 -3 C 10.109375 -3.300781 10.507812 -3.726562 10.8125 -4.28125 C 11.125 -4.84375 11.28125 -5.503906 11.28125 -6.265625 Z M 11.28125 -6.265625 "/></g></g></g><g fill="#2295a1" fill-opacity="1"><g transform="translate(71.171812, 23.800076)"><g><path d="M 0.734375 -6.265625 C 0.734375 -7.523438 0.984375 -8.640625 1.484375 -9.609375 C 1.992188 -10.585938 2.675781 -11.335938 3.53125 -11.859375 C 4.394531 -12.390625 5.359375 -12.65625 6.421875 -12.65625 C 7.347656 -12.65625 8.160156 -12.46875 8.859375 -12.09375 C 9.554688 -11.71875 10.113281 -11.242188 10.53125 -10.671875 L 10.53125 -12.453125 L 13.703125 -12.453125 L 13.703125 0 L 10.53125 0 L 10.53125 -1.8125 C 10.132812 -1.226562 9.578125 -0.742188 8.859375 -0.359375 C 8.148438 0.015625 7.332031 0.203125 6.40625 0.203125 C 5.351562 0.203125 4.394531 -0.0664062 3.53125 -0.609375 C 2.675781 -1.148438 1.992188 -1.910156 1.484375 -2.890625 C 0.984375 -3.867188 0.734375 -4.992188 0.734375 -6.265625 Z M 10.53125 -6.21875 C 10.53125 -6.988281 10.378906 -7.644531 10.078125 -8.1875 C 9.785156 -8.738281 9.382812 -9.160156 8.875 -9.453125 C 8.363281 -9.742188 7.816406 -9.890625 7.234375 -9.890625 C 6.648438 -9.890625 6.109375 -9.742188 5.609375 -9.453125 C 5.117188 -9.171875 4.71875 -8.753906 4.40625 -8.203125 C 4.101562 -7.660156 3.953125 -7.015625 3.953125 -6.265625 C 3.953125 -5.515625 4.101562 -4.859375 4.40625 -4.296875 C 4.71875 -3.734375 5.125 -3.300781 5.625 -3 C 6.125 -2.707031 6.660156 -2.5625 7.234375 -2.5625 C 7.816406 -2.5625 8.363281 -2.707031 8.875 -3 C 9.382812 -3.289062 9.785156 -3.707031 10.078125 -4.25 C 10.378906 -4.800781 10.53125 -5.457031 10.53125 -6.21875 Z M 10.53125 -6.21875 "/></g></g></g><g fill="#2295a1" fill-opacity="1"><g transform="translate(86.400588, 23.800076)"><g><path d="M 13.453125 -12.453125 L 5.75 5.890625 L 2.40625 5.890625 L 5.09375 -0.3125 L 0.109375 -12.453125 L 3.640625 -12.453125 L 6.859375 -3.75 L 10.109375 -12.453125 Z M 13.453125 -12.453125 "/></g></g></g><g fill="#2295a1" fill-opacity="1"><g transform="translate(99.989686, 23.800076)"><g><path d="M 0.734375 -6.265625 C 0.734375 -7.523438 0.984375 -8.640625 1.484375 -9.609375 C 1.992188 -10.585938 2.675781 -11.335938 3.53125 -11.859375 C 4.394531 -12.390625 5.359375 -12.65625 6.421875 -12.65625 C 7.347656 -12.65625 8.160156 -12.46875 8.859375 -12.09375 C 9.554688 -11.71875 10.113281 -11.242188 10.53125 -10.671875 L 10.53125 -12.453125 L 13.703125 -12.453125 L 13.703125 0 L 10.53125 0 L 10.53125 -1.8125 C 10.132812 -1.226562 9.578125 -0.742188 8.859375 -0.359375 C 8.148438 0.015625 7.332031 0.203125 6.40625 0.203125 C 5.351562 0.203125 4.394531 -0.0664062 3.53125 -0.609375 C 2.675781 -1.148438 1.992188 -1.910156 1.484375 -2.890625 C 0.984375 -3.867188 0.734375 -4.992188 0.734375 -6.265625 Z M 10.53125 -6.21875 C 10.53125 -6.988281 10.378906 -7.644531 10.078125 -8.1875 C 9.785156 -8.738281 9.382812 -9.160156 8.875 -9.453125 C 8.363281 -9.742188 7.816406 -9.890625 7.234375 -9.890625 C 6.648438 -9.890625 6.109375 -9.742188 5.609375 -9.453125 C 5.117188 -9.171875 4.71875 -8.753906 4.40625 -8.203125 C 4.101562 -7.660156 3.953125 -7.015625 3.953125 -6.265625 C 3.953125 -5.515625 4.101562 -4.859375 4.40625 -4.296875 C 4.71875 -3.734375 5.125 -3.300781 5.625 -3 C 6.125 -2.707031 6.660156 -2.5625 7.234375 -2.5625 C 7.816406 -2.5625 8.363281 -2.707031 8.875 -3 C 9.382812 -3.289062 9.785156 -3.707031 10.078125 -4.25 C 10.378906 -4.800781 10.53125 -5.457031 10.53125 -6.21875 Z M 10.53125 -6.21875 "/></g></g></g><g fill="#2295a1" fill-opacity="1"><g transform="translate(115.218462, 23.800076)"><g><path d="M 8.453125 -12.625 C 9.929688 -12.625 11.125 -12.15625 12.03125 -11.21875 C 12.945312 -10.28125 13.40625 -8.972656 13.40625 -7.296875 L 13.40625 0 L 10.265625 0 L 10.265625 -6.875 C 10.265625 -7.863281 10.015625 -8.625 9.515625 -9.15625 C 9.023438 -9.6875 8.351562 -9.953125 7.5 -9.953125 C 6.632812 -9.953125 5.953125 -9.6875 5.453125 -9.15625 C 4.953125 -8.625 4.703125 -7.863281 4.703125 -6.875 L 4.703125 0 L 1.546875 0 L 1.546875 -12.453125 L 4.703125 -12.453125 L 4.703125 -10.890625 C 5.117188 -11.429688 5.648438 -11.851562 6.296875 -12.15625 C 6.953125 -12.46875 7.671875 -12.625 8.453125 -12.625 Z M 8.453125 -12.625 "/></g></g></g><g fill="#2295a1" fill-opacity="1"><g transform="translate(130.065394, 23.800076)"><g/></g></g><g fill="#2295a1" fill-opacity="1"><g transform="translate(135.41119, 23.800076)"><g><path d="M 10.453125 -8.046875 C 11.335938 -7.878906 12.0625 -7.4375 12.625 -6.71875 C 13.195312 -6 13.484375 -5.175781 13.484375 -4.25 C 13.484375 -3.40625 13.273438 -2.664062 12.859375 -2.03125 C 12.453125 -1.394531 11.859375 -0.894531 11.078125 -0.53125 C 10.296875 -0.175781 9.375 0 8.3125 0 L 1.546875 0 L 1.546875 -15.6875 L 8.015625 -15.6875 C 9.078125 -15.6875 9.992188 -15.515625 10.765625 -15.171875 C 11.546875 -14.828125 12.132812 -14.347656 12.53125 -13.734375 C 12.925781 -13.117188 13.125 -12.421875 13.125 -11.640625 C 13.125 -10.722656 12.878906 -9.957031 12.390625 -9.34375 C 11.898438 -8.726562 11.253906 -8.296875 10.453125 -8.046875 Z M 4.703125 -9.21875 L 7.578125 -9.21875 C 8.328125 -9.21875 8.898438 -9.382812 9.296875 -9.71875 C 9.703125 -10.050781 9.90625 -10.535156 9.90625 -11.171875 C 9.90625 -11.796875 9.703125 -12.28125 9.296875 -12.625 C 8.898438 -12.96875 8.328125 -13.140625 7.578125 -13.140625 L 4.703125 -13.140625 Z M 7.859375 -2.5625 C 8.628906 -2.5625 9.226562 -2.738281 9.65625 -3.09375 C 10.082031 -3.457031 10.296875 -3.96875 10.296875 -4.625 C 10.296875 -5.300781 10.066406 -5.828125 9.609375 -6.203125 C 9.160156 -6.585938 8.554688 -6.78125 7.796875 -6.78125 L 4.703125 -6.78125 L 4.703125 -2.5625 Z M 7.859375 -2.5625 "/></g></g></g><g fill="#2295a1" fill-opacity="1"><g transform="translate(149.853829, 23.800076)"><g><path d="M 7.078125 0.203125 C 5.878906 0.203125 4.800781 -0.0625 3.84375 -0.59375 C 2.882812 -1.125 2.128906 -1.875 1.578125 -2.84375 C 1.035156 -3.820312 0.765625 -4.945312 0.765625 -6.21875 C 0.765625 -7.5 1.046875 -8.625 1.609375 -9.59375 C 2.171875 -10.5625 2.9375 -11.3125 3.90625 -11.84375 C 4.882812 -12.382812 5.972656 -12.65625 7.171875 -12.65625 C 8.367188 -12.65625 9.453125 -12.382812 10.421875 -11.84375 C 11.398438 -11.3125 12.171875 -10.5625 12.734375 -9.59375 C 13.296875 -8.625 13.578125 -7.5 13.578125 -6.21875 C 13.578125 -4.945312 13.285156 -3.820312 12.703125 -2.84375 C 12.128906 -1.875 11.347656 -1.125 10.359375 -0.59375 C 9.378906 -0.0625 8.285156 0.203125 7.078125 0.203125 Z M 7.078125 -2.53125 C 7.648438 -2.53125 8.1875 -2.671875 8.6875 -2.953125 C 9.1875 -3.234375 9.582031 -3.648438 9.875 -4.203125 C 10.175781 -4.753906 10.328125 -5.425781 10.328125 -6.21875 C 10.328125 -7.40625 10.015625 -8.316406 9.390625 -8.953125 C 8.773438 -9.585938 8.019531 -9.90625 7.125 -9.90625 C 6.226562 -9.90625 5.472656 -9.585938 4.859375 -8.953125 C 4.253906 -8.316406 3.953125 -7.40625 3.953125 -6.21875 C 3.953125 -5.039062 4.25 -4.128906 4.84375 -3.484375 C 5.4375 -2.847656 6.179688 -2.53125 7.078125 -2.53125 Z M 7.078125 -2.53125 "/></g></g></g><g fill="#2295a1" fill-opacity="1"><g transform="translate(164.184142, 23.800076)"><g><path d="M 8.421875 0 L 5.859375 -3.859375 L 3.59375 0 L 0.21875 0 L 4.296875 -6.25 L 0.1875 -12.453125 L 3.734375 -12.453125 L 6.265625 -8.609375 L 8.5625 -12.453125 L 11.9375 -12.453125 L 7.84375 -6.25 L 11.96875 0 Z M 8.421875 0 "/></g></g></g></g></g><g transform="matrix(1, 0, 0, 1, 87, 283)"><g clip-path="url(#09f0cf1c40)"><g fill="#e00014" fill-opacity="1"><g transform="translate(1.561775, 14.600311)"><g><path d="M 4.609375 0.171875 C 3.796875 0.171875 3.007812 0.0625 2.25 -0.15625 C 1.488281 -0.375 0.875 -0.660156 0.40625 -1.015625 L 1.21875 -2.8125 C 1.664062 -2.488281 2.191406 -2.226562 2.796875 -2.03125 C 3.398438 -1.832031 4.007812 -1.734375 4.625 -1.734375 C 5.300781 -1.734375 5.800781 -1.832031 6.125 -2.03125 C 6.445312 -2.238281 6.609375 -2.507812 6.609375 -2.84375 C 6.609375 -3.082031 6.507812 -3.28125 6.3125 -3.4375 C 6.125 -3.601562 5.878906 -3.734375 5.578125 -3.828125 C 5.285156 -3.929688 4.882812 -4.046875 4.375 -4.171875 C 3.582031 -4.347656 2.9375 -4.53125 2.4375 -4.71875 C 1.9375 -4.90625 1.507812 -5.203125 1.15625 -5.609375 C 0.800781 -6.023438 0.625 -6.578125 0.625 -7.265625 C 0.625 -7.867188 0.785156 -8.410156 1.109375 -8.890625 C 1.429688 -9.378906 1.914062 -9.765625 2.5625 -10.046875 C 3.21875 -10.335938 4.015625 -10.484375 4.953125 -10.484375 C 5.617188 -10.484375 6.265625 -10.40625 6.890625 -10.25 C 7.515625 -10.09375 8.0625 -9.863281 8.53125 -9.5625 L 7.796875 -7.75 C 6.847656 -8.289062 5.898438 -8.5625 4.953125 -8.5625 C 4.273438 -8.5625 3.773438 -8.453125 3.453125 -8.234375 C 3.140625 -8.023438 2.984375 -7.742188 2.984375 -7.390625 C 2.984375 -7.035156 3.164062 -6.769531 3.53125 -6.59375 C 3.90625 -6.425781 4.46875 -6.257812 5.21875 -6.09375 C 6.007812 -5.90625 6.65625 -5.71875 7.15625 -5.53125 C 7.65625 -5.34375 8.082031 -5.046875 8.4375 -4.640625 C 8.800781 -4.242188 8.984375 -3.703125 8.984375 -3.015625 C 8.984375 -2.429688 8.816406 -1.894531 8.484375 -1.40625 C 8.160156 -0.914062 7.664062 -0.53125 7 -0.25 C 6.34375 0.03125 5.546875 0.171875 4.609375 0.171875 Z M 4.609375 0.171875 "/></g></g></g><g fill="#e00014" fill-opacity="1"><g transform="translate(21.291722, 14.600311)"><g><path d="M 9.203125 -1.90625 L 9.203125 0 L 1.21875 0 L 1.21875 -10.296875 L 9.015625 -10.296875 L 9.015625 -8.390625 L 3.59375 -8.390625 L 3.59375 -6.15625 L 8.375 -6.15625 L 8.375 -4.296875 L 3.59375 -4.296875 L 3.59375 -1.90625 Z M 9.203125 -1.90625 "/></g></g></g><g fill="#e00014" fill-opacity="1"><g transform="translate(41.507569, 14.600311)"><g><path d="M 8 -2.203125 L 3.21875 -2.203125 L 2.3125 0 L -0.125 0 L 4.453125 -10.296875 L 6.8125 -10.296875 L 11.421875 0 L 8.921875 0 Z M 7.25 -4.015625 L 5.625 -7.96875 L 3.984375 -4.015625 Z M 7.25 -4.015625 "/></g></g></g><g fill="#e00014" fill-opacity="1"><g transform="translate(63.122175, 14.600311)"><g/></g></g><g fill="#e00014" fill-opacity="1"><g transform="translate(77.625144, 14.600311)"><g><path d="M 6.15625 0.171875 C 5.101562 0.171875 4.148438 -0.0507812 3.296875 -0.5 C 2.453125 -0.957031 1.785156 -1.59375 1.296875 -2.40625 C 0.816406 -3.21875 0.578125 -4.132812 0.578125 -5.15625 C 0.578125 -6.175781 0.816406 -7.085938 1.296875 -7.890625 C 1.785156 -8.703125 2.453125 -9.335938 3.296875 -9.796875 C 4.148438 -10.253906 5.109375 -10.484375 6.171875 -10.484375 C 7.054688 -10.484375 7.859375 -10.320312 8.578125 -10 C 9.304688 -9.6875 9.914062 -9.238281 10.40625 -8.65625 L 8.875 -7.234375 C 8.175781 -8.046875 7.3125 -8.453125 6.28125 -8.453125 C 5.644531 -8.453125 5.078125 -8.3125 4.578125 -8.03125 C 4.078125 -7.75 3.6875 -7.359375 3.40625 -6.859375 C 3.125 -6.359375 2.984375 -5.789062 2.984375 -5.15625 C 2.984375 -4.507812 3.125 -3.9375 3.40625 -3.4375 C 3.6875 -2.9375 4.078125 -2.546875 4.578125 -2.265625 C 5.078125 -1.992188 5.644531 -1.859375 6.28125 -1.859375 C 7.3125 -1.859375 8.175781 -2.265625 8.875 -3.078125 L 10.40625 -1.65625 C 9.914062 -1.0625 9.304688 -0.609375 8.578125 -0.296875 C 7.847656 0.015625 7.039062 0.171875 6.15625 0.171875 Z M 6.15625 0.171875 "/></g></g></g><g fill="#e00014" fill-opacity="1"><g transform="translate(98.753869, 14.600311)"><g><path d="M 8 -2.203125 L 3.21875 -2.203125 L 2.3125 0 L -0.125 0 L 4.453125 -10.296875 L 6.8125 -10.296875 L 11.421875 0 L 8.921875 0 Z M 7.25 -4.015625 L 5.625 -7.96875 L 3.984375 -4.015625 Z M 7.25 -4.015625 "/></g></g></g><g fill="#e00014" fill-opacity="1"><g transform="translate(120.368476, 14.600311)"><g><path d="M 7.78125 0 L 5.796875 -2.875 L 3.609375 -2.875 L 3.609375 0 L 1.21875 0 L 1.21875 -10.296875 L 5.6875 -10.296875 C 6.59375 -10.296875 7.378906 -10.144531 8.046875 -9.84375 C 8.722656 -9.539062 9.242188 -9.109375 9.609375 -8.546875 C 9.972656 -7.992188 10.15625 -7.332031 10.15625 -6.5625 C 10.15625 -5.800781 9.96875 -5.140625 9.59375 -4.578125 C 9.226562 -4.023438 8.707031 -3.601562 8.03125 -3.3125 L 10.34375 0 Z M 7.734375 -6.5625 C 7.734375 -7.144531 7.546875 -7.585938 7.171875 -7.890625 C 6.804688 -8.203125 6.265625 -8.359375 5.546875 -8.359375 L 3.609375 -8.359375 L 3.609375 -4.765625 L 5.546875 -4.765625 C 6.265625 -4.765625 6.804688 -4.921875 7.171875 -5.234375 C 7.546875 -5.546875 7.734375 -5.988281 7.734375 -6.5625 Z M 7.734375 -6.5625 "/></g></g></g><g fill="#e00014" fill-opacity="1"><g transform="translate(141.526651, 14.600311)"><g><path d="M 8.1875 -5.3125 L 10.359375 -5.3125 L 10.359375 -1.140625 C 9.796875 -0.710938 9.144531 -0.382812 8.40625 -0.15625 C 7.675781 0.0625 6.941406 0.171875 6.203125 0.171875 C 5.128906 0.171875 4.164062 -0.0507812 3.3125 -0.5 C 2.457031 -0.957031 1.785156 -1.59375 1.296875 -2.40625 C 0.816406 -3.21875 0.578125 -4.132812 0.578125 -5.15625 C 0.578125 -6.175781 0.816406 -7.085938 1.296875 -7.890625 C 1.785156 -8.703125 2.460938 -9.335938 3.328125 -9.796875 C 4.191406 -10.253906 5.160156 -10.484375 6.234375 -10.484375 C 7.140625 -10.484375 7.957031 -10.328125 8.6875 -10.015625 C 9.425781 -9.710938 10.046875 -9.273438 10.546875 -8.703125 L 9.015625 -7.28125 C 8.285156 -8.0625 7.398438 -8.453125 6.359375 -8.453125 C 5.703125 -8.453125 5.117188 -8.3125 4.609375 -8.03125 C 4.097656 -7.757812 3.695312 -7.375 3.40625 -6.875 C 3.125 -6.375 2.984375 -5.800781 2.984375 -5.15625 C 2.984375 -4.507812 3.125 -3.9375 3.40625 -3.4375 C 3.695312 -2.9375 4.09375 -2.546875 4.59375 -2.265625 C 5.101562 -1.992188 5.679688 -1.859375 6.328125 -1.859375 C 7.015625 -1.859375 7.632812 -2.003906 8.1875 -2.296875 Z M 8.1875 -5.3125 "/></g></g></g><g fill="#e00014" fill-opacity="1"><g transform="translate(163.214874, 14.600311)"><g><path d="M 6.21875 0.171875 C 5.144531 0.171875 4.175781 -0.0546875 3.3125 -0.515625 C 2.457031 -0.972656 1.785156 -1.609375 1.296875 -2.421875 C 0.816406 -3.234375 0.578125 -4.144531 0.578125 -5.15625 C 0.578125 -6.164062 0.816406 -7.070312 1.296875 -7.875 C 1.785156 -8.6875 2.457031 -9.320312 3.3125 -9.78125 C 4.175781 -10.25 5.144531 -10.484375 6.21875 -10.484375 C 7.28125 -10.484375 8.238281 -10.25 9.09375 -9.78125 C 9.945312 -9.320312 10.617188 -8.6875 11.109375 -7.875 C 11.597656 -7.070312 11.84375 -6.164062 11.84375 -5.15625 C 11.84375 -4.144531 11.597656 -3.234375 11.109375 -2.421875 C 10.617188 -1.609375 9.945312 -0.972656 9.09375 -0.515625 C 8.238281 -0.0546875 7.28125 0.171875 6.21875 0.171875 Z M 6.21875 -1.859375 C 6.820312 -1.859375 7.367188 -1.992188 7.859375 -2.265625 C 8.347656 -2.546875 8.734375 -2.9375 9.015625 -3.4375 C 9.296875 -3.9375 9.4375 -4.507812 9.4375 -5.15625 C 9.4375 -5.789062 9.296875 -6.359375 9.015625 -6.859375 C 8.734375 -7.359375 8.347656 -7.75 7.859375 -8.03125 C 7.367188 -8.3125 6.820312 -8.453125 6.21875 -8.453125 C 5.601562 -8.453125 5.050781 -8.3125 4.5625 -8.03125 C 4.070312 -7.75 3.6875 -7.359375 3.40625 -6.859375 C 3.125 -6.359375 2.984375 -5.789062 2.984375 -5.15625 C 2.984375 -4.507812 3.125 -3.9375 3.40625 -3.4375 C 3.6875 -2.9375 4.070312 -2.546875 4.5625 -2.265625 C 5.050781 -1.992188 5.601562 -1.859375 6.21875 -1.859375 Z M 6.21875 -1.859375 "/></g></g></g></g></g><g clip-path="url(#81a493c156)"><g clip-path="url(#a560a67ae6)"><g clip-path="url(#722a3745ee)"><path fill="#e00014" d="M 94.933594 88.039062 L 262.941406 88.039062 L 262.976562 226.75 L 249.257812 226.820312 L 226.855469 226.75 L 226.855469 249.222656 L 226.785156 262.941406 L 88.039062 262.941406 L 88.039062 87.933594 Z M 119.15625 137.320312 L 126.785156 129.691406 L 119.050781 121.953125 L 111.417969 129.585938 Z M 129.65625 126.820312 L 137.390625 119.085938 L 129.65625 111.347656 L 121.921875 119.085938 Z M 129.65625 147.820312 L 137.285156 140.191406 L 129.65625 132.5625 L 122.023438 140.191406 Z M 140.15625 137.320312 L 147.890625 129.585938 L 140.261719 121.953125 L 132.527344 129.691406 Z M 263.046875 262.941406 L 262.941406 240.578125 L 240.679688 240.578125 L 240.578125 262.941406 Z M 213.03125 249.1875 L 213.03125 226.714844 L 213.101562 212.996094 L 213.03125 204.804688 L 213.03125 148.242188 C 213.136719 141.90625 210.441406 136.0625 206.203125 131.824219 C 201.96875 127.589844 196.160156 124.929688 189.71875 124.929688 C 183.277344 124.929688 177.46875 127.589844 173.234375 131.824219 C 168.996094 136.0625 166.441406 141.765625 166.40625 148.242188 L 166.40625 166.300781 L 148.347656 166.300781 C 141.90625 166.300781 136.097656 168.960938 131.859375 173.199219 C 127.625 177.433594 124.964844 183.242188 124.964844 189.683594 C 125.070312 196.019531 127.625 201.933594 131.859375 206.167969 C 136.097656 210.40625 141.976562 212.996094 148.277344 212.996094 L 199.308594 212.996094 L 199.308594 226.785156 C 176.558594 226.714844 148.382812 226.679688 148.382812 226.679688 C 138.089844 226.679688 128.886719 222.445312 122.234375 215.796875 C 115.515625 209.074219 111.28125 199.871094 111.347656 189.648438 C 111.28125 179.429688 115.410156 170.117188 122.128906 163.398438 C 128.851562 156.675781 138.160156 152.546875 148.382812 152.617188 L 152.722656 152.546875 L 152.722656 148.277344 C 152.722656 137.984375 156.851562 128.675781 163.503906 122.023438 C 170.222656 115.304688 179.535156 111.175781 189.859375 111.140625 C 200.007812 111.140625 209.285156 115.304688 216.003906 122.023438 C 222.621094 128.640625 226.785156 137.984375 226.890625 148.171875 C 226.890625 148.171875 226.890625 186.113281 226.820312 209.425781 L 226.820312 212.996094 L 249.292969 212.996094 L 249.222656 101.757812 L 101.863281 101.757812 L 101.757812 249.222656 Z M 213.03125 249.1875 " fill-opacity="1" fill-rule="nonzero"/></g></g></g><g clip-path="url(#bb564f4830)"><g transform="matrix(1, 0, 0, 1, 105, 108)"><g clip-path="url(#c6d7bc23be)"><g clip-path="url(#829b2cb056)"><path fill="#ffffff" d="M 0.605469 0.722656 L 44.921875 0.722656 L 44.921875 39.574219 L 0.605469 39.574219 Z M 0.605469 0.722656 " fill-opacity="1" fill-rule="nonzero"/></g></g></g></g><g fill="#2295a1" fill-opacity="1"><g transform="translate(140.248068, 244.57755)"><g><path d="M 4.4375 -2.359375 L 9.328125 -2.359375 L 9.328125 0 L 1.46875 0 L 1.46875 -14.828125 L 4.4375 -14.828125 Z M 4.4375 -2.359375 "/></g></g></g><g fill="#2295a1" fill-opacity="1"><g transform="translate(151.72653, 244.57755)"><g><path d="M 8.34375 0.15625 C 6.957031 0.15625 5.679688 -0.171875 4.515625 -0.828125 C 3.359375 -1.484375 2.441406 -2.382812 1.765625 -3.53125 C 1.085938 -4.6875 0.75 -5.992188 0.75 -7.453125 C 0.75 -8.898438 1.085938 -10.203125 1.765625 -11.359375 C 2.441406 -12.515625 3.359375 -13.414062 4.515625 -14.0625 C 5.679688 -14.71875 6.957031 -15.046875 8.34375 -15.046875 C 9.75 -15.046875 11.03125 -14.71875 12.1875 -14.0625 C 13.34375 -13.414062 14.253906 -12.515625 14.921875 -11.359375 C 15.597656 -10.203125 15.9375 -8.898438 15.9375 -7.453125 C 15.9375 -5.992188 15.597656 -4.6875 14.921875 -3.53125 C 14.253906 -2.382812 13.335938 -1.484375 12.171875 -0.828125 C 11.015625 -0.171875 9.738281 0.15625 8.34375 0.15625 Z M 8.34375 -2.5 C 9.238281 -2.5 10.023438 -2.703125 10.703125 -3.109375 C 11.390625 -3.515625 11.921875 -4.09375 12.296875 -4.84375 C 12.679688 -5.59375 12.875 -6.460938 12.875 -7.453125 C 12.875 -8.453125 12.679688 -9.320312 12.296875 -10.0625 C 11.921875 -10.800781 11.390625 -11.367188 10.703125 -11.765625 C 10.023438 -12.171875 9.238281 -12.375 8.34375 -12.375 C 7.457031 -12.375 6.671875 -12.171875 5.984375 -11.765625 C 5.296875 -11.367188 4.757812 -10.800781 4.375 -10.0625 C 3.988281 -9.320312 3.796875 -8.453125 3.796875 -7.453125 C 3.796875 -6.460938 3.988281 -5.59375 4.375 -4.84375 C 4.757812 -4.09375 5.296875 -3.515625 5.984375 -3.109375 C 6.671875 -2.703125 7.457031 -2.5 8.34375 -2.5 Z M 8.34375 -2.5 "/></g></g></g><g fill="#2295a1" fill-opacity="1"><g transform="translate(170.134396, 244.57755)"><g><path d="M 14.796875 -14.828125 L 9.34375 0 L 5.734375 0 L 0.296875 -14.828125 L 3.484375 -14.828125 L 7.5625 -3.03125 L 11.625 -14.828125 Z M 14.796875 -14.828125 "/></g></g></g><g fill="#2295a1" fill-opacity="1"><g transform="translate(186.969327, 244.57755)"><g><path d="M 4.4375 -12.4375 L 4.4375 -8.71875 L 9.4375 -8.71875 L 9.4375 -6.359375 L 4.4375 -6.359375 L 4.4375 -2.421875 L 10.078125 -2.421875 L 10.078125 0 L 1.46875 0 L 1.46875 -14.859375 L 10.078125 -14.859375 L 10.078125 -12.4375 Z M 4.4375 -12.4375 "/></g></g></g></g></g></svg>